<svg width="50" height="50" viewBox="0 0 50 50" fill="none" xmlns="http://www.w3.org/2000/svg">
<path d="M50 25.0071C50 38.7902 38.7729 50.0054 25.0019 50.0054C11.2309 50.0054 0 38.7946 0 25.0071C0 11.2195 11.2309 0 25.0019 0C38.7849 0 50 11.2233 50 25.0071ZM1.56293 25.0071C1.56293 37.9159 12.0873 48.4199 24.9861 48.4199C37.8843 48.4199 48.3846 37.9234 48.3846 25.0071C48.3846 12.0901 37.9045 1.59797 25.0019 1.59797C12.0993 1.59797 1.56293 12.0983 1.56293 25.0071ZM13.4118 27.2674C10.1809 27.2674 6.67995 25.059 6.67995 21.4922C6.67995 14.7019 15.3909 8.47516 18.3909 7.11361C18.8596 6.89408 19.6028 7.77656 19.8773 8.31192C20.1037 8.76723 20.0145 8.93485 19.8975 8.99864C14.4295 11.8906 8.54965 17.3225 8.54965 22.4109C8.54965 24.6156 9.72043 25.4743 12.7293 25.4743C16.2631 25.4743 24.2954 20.6572 24.2954 17.1824C24.2954 15.8846 23.3182 15.2254 21.396 15.2254C16.6344 15.2254 14.0658 18.2969 13.3188 20.9249C13.2625 21.1244 13.0443 21.2082 12.7495 21.1488C12.37 21.0725 11.9861 20.7811 12.0304 20.4458C12.3378 18.113 14.8577 12.997 20.2853 12.997C22.7287 12.997 25.7128 15.1654 25.7128 17.694C25.709 22.6267 18.7786 27.2674 13.4118 27.2674ZM21.2264 43.7111C21.2264 43.7066 21.223 43.703 21.2185 43.703C18.5274 43.7006 13.981 42.5002 13.981 37.9916C13.981 34.5129 16.9292 30.427 22.506 26.1729L22.6439 26.0653C23.0152 25.7776 23.9437 26.3567 24.3637 26.864C24.7837 27.3712 24.5699 27.5588 24.4769 27.6351C21.8235 29.8316 15.5927 34.9758 15.5927 39.1499C15.5927 40.7472 16.9007 41.7698 19.0051 41.7698C21.771 41.7698 25.2119 40.9711 28.697 39.5495C29.1417 39.3656 29.6667 39.9485 29.9089 40.432C30.1512 40.9154 30.1025 41.2025 29.864 41.3307C26.7814 43.0304 24.2758 43.718 21.2346 43.7192C21.2301 43.7192 21.2264 43.7156 21.2264 43.7111ZM32.9817 27.5032C32.9817 27.4987 32.9778 27.495 32.9733 27.495C27.1018 27.4909 27.0335 23.2058 27.0335 23.0257C27.0398 22.8375 27.0658 22.6505 27.1101 22.4672C27.1538 22.2839 27.2161 22.1054 27.296 21.9343C27.3763 21.763 27.4731 21.6004 27.5857 21.4484C27.6983 21.2964 27.8254 21.1557 27.9665 21.0287C28.2163 20.7929 28.7255 20.9168 28.9317 20.985C29.3352 21.1088 29.7837 21.364 29.84 21.6479C29.8457 21.6773 29.8476 21.7073 29.845 21.7373C29.8425 21.7667 29.8355 21.7961 29.8248 21.8243C29.814 21.8524 29.7995 21.8787 29.7818 21.9031C29.7641 21.9275 29.7426 21.9487 29.7192 21.9675C28.9114 22.6623 28.5073 23.1658 28.5073 24.1321C28.5073 24.9627 29.3839 25.8495 31.007 25.8495C37.4042 25.8495 41.4826 20.4096 41.4826 17.5701C41.4826 14.9777 39.5566 14.4305 37.9412 14.4305C32.3314 14.4305 28.2163 19.7347 28.0468 19.9624C28.0272 19.9893 28.0038 20.013 27.9772 20.0337C27.95 20.0537 27.9209 20.0706 27.8899 20.0831C27.8583 20.095 27.8254 20.1031 27.7919 20.1062C27.7584 20.1094 27.7249 20.1081 27.6913 20.1018C27.2517 20.0499 26.6458 19.3795 26.4156 18.8397C26.3852 18.7878 26.3624 18.7322 26.3472 18.674C26.3314 18.6165 26.3238 18.5564 26.3238 18.4964C26.3238 18.4363 26.3314 18.3769 26.3472 18.3188C26.3778 18.203 26.4535 18.1064 26.5303 18.0146C26.7512 17.7511 26.9796 17.4938 27.2144 17.2424C27.4902 16.9472 27.7755 16.6608 28.0696 16.3831C28.3643 16.106 28.6673 15.8377 28.9785 15.5794C29.2903 15.3211 29.6097 15.0722 29.9367 14.8339C32.2144 13.1727 34.4238 12.3259 36.5035 12.3259C40.9741 12.3259 43.0095 15.5569 43.0095 18.5564C42.9848 23.3347 38.3172 27.507 32.9898 27.5113C32.9853 27.5113 32.9817 27.5076 32.9817 27.5032Z" fill="#00008B" fill-opacity="0.75"/>
</svg>
