<svg width="32" height="32" viewBox="0 0 32 32" fill="none" xmlns="http://www.w3.org/2000/svg">
<path d="M32 15.9997C32 24.836 24.8361 32 15.9999 32C7.1638 32 0 24.836 0 15.9997C0 7.16304 7.1638 0 15.9999 0C24.8361 0 32 7.16304 32 15.9997Z" fill="url(#paint0_linear_44_878)"/>
<path d="M15.9029 13.03C15.9029 12.8231 15.8815 12.6343 15.8414 12.4642C15.801 12.2935 15.7304 12.1489 15.6293 12.0283C15.5274 11.9076 15.3922 11.8141 15.2215 11.7469C15.0502 11.6792 14.8355 11.6459 14.5761 11.6459C14.3161 11.6459 14.1014 11.6792 13.9312 11.7469C13.7592 11.8141 13.6244 11.9076 13.5235 12.0283C13.4228 12.1489 13.3528 12.2935 13.315 12.4642C13.2757 12.6343 13.2566 12.8231 13.2566 13.03C13.2566 13.2369 13.2757 13.4256 13.315 13.5961C13.3528 13.7666 13.4228 13.9128 13.5235 14.0354C13.6244 14.1582 13.7592 14.2547 13.9312 14.3233C14.1014 14.394 14.3161 14.4288 14.5761 14.4288C14.8355 14.4288 15.0502 14.394 15.2215 14.3233C15.3922 14.2547 15.5274 14.1582 15.6293 14.0354C15.7304 13.9128 15.801 13.7666 15.8414 13.5961C15.8815 13.4256 15.9029 13.2369 15.9029 13.03ZM11.7351 12.994C11.7351 12.5902 11.7876 12.2308 11.8908 11.9161C11.9931 11.6011 12.1602 11.3366 12.3882 11.1232C12.6171 10.9089 12.9094 10.7464 13.2679 10.6363C13.6259 10.5259 14.0624 10.4706 14.5761 10.4706C15.0862 10.4706 15.5214 10.5259 15.8815 10.6363C16.2408 10.7464 16.5353 10.9089 16.7643 11.1232C16.9929 11.3366 17.1592 11.6011 17.2611 11.9161C17.3654 12.2308 17.4165 12.5902 17.4165 12.994C17.4165 13.4021 17.3654 13.7641 17.2611 14.0788C17.1592 14.394 16.9929 14.658 16.7643 14.8722C16.5353 15.0857 16.2408 15.2482 15.8815 15.3583C15.5214 15.4689 15.0862 15.5251 14.5761 15.5251C14.0624 15.5251 13.6259 15.4689 13.2679 15.3583C12.9094 15.2482 12.6171 15.0857 12.3882 14.8722C12.1602 14.658 11.9931 14.394 11.8908 14.0788C11.7876 13.7641 11.7351 13.4021 11.7351 12.994Z" fill="#101010"/>
<path d="M22.078 13.03C22.078 12.8231 22.0579 12.6343 22.0174 12.4642C21.9762 12.2935 21.9058 12.1489 21.8053 12.0283C21.7042 11.9076 21.5674 11.8141 21.3968 11.7469C21.2255 11.6792 21.0116 11.6459 20.7519 11.6459C20.4928 11.6459 20.2769 11.6792 20.1064 11.7469C19.9349 11.8141 19.8011 11.9076 19.7003 12.0283C19.5986 12.1489 19.528 12.2935 19.4903 12.4642C19.4518 12.6343 19.4327 12.8231 19.4327 13.03C19.4327 13.2369 19.4518 13.4256 19.4903 13.5961C19.528 13.7666 19.5986 13.9128 19.7003 14.0354C19.8011 14.1582 19.9349 14.2547 20.1064 14.3233C20.2769 14.394 20.4928 14.4288 20.7519 14.4288C21.0116 14.4288 21.2255 14.394 21.3968 14.3233C21.5674 14.2547 21.7042 14.1582 21.8053 14.0354C21.9058 13.9128 21.9762 13.7666 22.0174 13.5961C22.0579 13.4256 22.078 13.2369 22.078 13.03ZM17.9117 12.994C17.9117 12.5902 17.9626 12.2308 18.0663 11.9161C18.1684 11.6011 18.3363 11.3366 18.5633 11.1232C18.7917 10.9089 19.0854 10.7464 19.4435 10.6363C19.8017 10.5259 20.2375 10.4706 20.7519 10.4706C21.2612 10.4706 21.696 10.5259 22.0579 10.6363C22.4166 10.7464 22.7116 10.9089 22.9402 11.1232C23.1685 11.3366 23.3355 11.6011 23.4377 11.9161C23.5411 12.2308 23.5922 12.5902 23.5922 12.994C23.5922 13.4021 23.5411 13.7641 23.4377 14.0788C23.3355 14.394 23.1685 14.658 22.9402 14.8722C22.7116 15.0857 22.4166 15.2482 22.0579 15.3583C21.696 15.4689 21.2612 15.5251 20.7519 15.5251C20.2375 15.5251 19.8017 15.4689 19.4435 15.3583C19.0854 15.2482 18.7917 15.0857 18.5633 14.8722C18.3363 14.658 18.1684 14.394 18.0663 14.0788C17.9626 13.7641 17.9117 13.4021 17.9117 12.994Z" fill="#101010"/>
<path d="M25.8724 14.2499C25.9178 14.2907 25.9412 14.3389 25.9412 14.3966V15.2953C25.9412 15.3575 25.9178 15.4092 25.8724 15.4535C25.8268 15.4966 25.7705 15.517 25.7033 15.517H25.2957H25.2897H24.3547C24.2783 15.517 24.2147 15.4931 24.1615 15.4462C24.1086 15.3979 24.0833 15.3408 24.0833 15.2737V14.7706V14.7636V9.36874V9.1327C24.0833 9.07576 24.1049 9.02529 24.1505 8.98177C24.1965 8.93927 24.2523 8.91827 24.3188 8.91827H25.3324C25.3998 8.91827 25.4555 8.93927 25.5021 8.98177C25.5464 9.02529 25.5695 9.07576 25.5695 9.1327V9.81387V13.7427C25.5695 14.1072 25.5705 14.0464 25.5705 14.1815H25.6959H25.7106C25.7723 14.186 25.8268 14.209 25.8724 14.2499Z" fill="#101010"/>
<path d="M14.7392 21.7212C14.7867 21.7641 14.8109 21.8145 14.8109 21.8748V22.8154C14.8109 22.8808 14.7867 22.9345 14.7392 22.9812C14.6915 23.0263 14.6323 23.0476 14.5621 23.0476H14.1356H14.1292H13.1507C13.0707 23.0476 13.0043 23.0225 12.9483 22.9733C12.893 22.9228 12.8667 22.863 12.8667 22.7929V22.2661V22.2589V16.6124V16.3652C12.8667 16.3053 12.889 16.2527 12.9369 16.2074C12.9851 16.163 13.0435 16.1407 13.113 16.1407H14.174C14.2441 16.1407 14.3029 16.163 14.3515 16.2074C14.3979 16.2527 14.4222 16.3053 14.4222 16.3652V16.5716V21.1903C14.4222 21.5718 14.4232 21.5084 14.4232 21.6497H14.5544H14.5697C14.6345 21.6547 14.6915 21.6785 14.7392 21.7212Z" fill="#101010"/>
<path d="M11.3629 14.4801L10.9748 13.9769C10.9344 13.9212 10.8852 13.8907 10.826 13.8855C10.7683 13.8812 10.7085 13.9005 10.6482 13.9458C10.5405 14.0176 10.1573 14.3872 9.11216 14.3872C8.3499 14.3872 7.45194 13.9789 7.45194 12.9993C7.45194 12.0355 8.40522 11.6115 9.11216 11.6115C10.0937 11.6115 10.5405 11.9809 10.6482 12.0526C10.7085 12.098 10.7683 12.1176 10.826 12.1131C10.8852 12.1077 10.9344 12.077 10.9748 12.0217L11.3629 11.5182C11.4299 11.4368 11.4299 11.435 11.4546 11.402C11.5953 11.2234 11.3233 11.0467 11.3136 11.0416C11.1349 10.9194 11.0343 10.8654 10.8799 10.7858C10.7259 10.7076 10.5619 10.6441 10.3903 10.5964C10.2168 10.5489 10.0293 10.5141 9.82577 10.4929C9.62445 10.4739 9.38688 10.4635 9.11216 10.4635C8.50447 10.4635 8.00874 10.535 7.627 10.6763C7.24395 10.8182 6.00696 11.3961 6.00696 12.9448C6.00696 14.5601 7.24395 15.1805 7.627 15.3225C8.00874 15.4637 8.50447 15.5349 9.11216 15.5349C9.38688 15.5349 9.62445 15.5247 9.82577 15.5052C10.0293 15.4843 10.2168 15.4497 10.3903 15.4021C10.5619 15.3539 10.7259 15.291 10.8799 15.2125C11.0343 15.1334 11.1349 15.079 11.3136 14.957C11.3233 14.952 11.5953 14.7751 11.4546 14.5961C11.4299 14.5633 11.4299 14.5619 11.3629 14.4801Z" fill="#101010"/>
<path d="M10.7543 21.0751C10.7122 21.2474 10.6393 21.3947 10.5329 21.5173C10.4271 21.6387 10.2866 21.734 10.1098 21.7987C9.93195 21.8642 9.70852 21.896 9.43623 21.896C9.16646 21.896 8.94343 21.8642 8.76563 21.7987C8.58855 21.734 8.447 21.6387 8.34189 21.5173C8.2371 21.3947 8.1638 21.2474 8.12129 21.0751C8.07747 20.9024 8.05647 20.708 8.05647 20.4935C8.05647 20.2787 8.07747 20.081 8.12129 19.9031C8.1638 19.7266 8.2371 19.5735 8.34189 19.4463C8.447 19.3182 8.58855 19.2197 8.76563 19.1493C8.94343 19.0794 9.16646 19.0443 9.43623 19.0443C9.70852 19.0443 9.93195 19.0794 10.1098 19.1493C10.2866 19.2197 10.4271 19.3182 10.5329 19.4463C10.6393 19.5735 10.7122 19.7266 10.7543 19.9031C10.7966 20.081 10.8188 20.2787 10.8188 20.4935C10.8188 20.708 10.7966 20.9024 10.7543 21.0751ZM6.34546 22.8413C6.34546 22.9061 6.3705 22.9597 6.42118 23.0026C6.47005 23.0455 6.53153 23.0672 6.59999 23.0672C6.59999 23.0672 7.80376 23.0619 7.85101 23.0507C7.89776 23.0421 7.92159 23.0063 7.92159 22.9468L7.93108 22.7933C8.12957 22.8707 8.35462 22.9383 8.60793 22.9954C8.86559 23.0527 9.15273 23.0817 9.46824 23.0817C9.99859 23.0817 10.4494 23.0242 10.8217 22.9084C11.195 22.7933 11.4986 22.6267 11.7333 22.4061C11.9695 22.1855 12.1391 21.9133 12.2439 21.585C12.3493 21.2578 12.4013 20.88 12.4013 20.4558C12.4013 20.0299 12.3467 19.6536 12.2362 19.3262C12.1272 18.9983 11.9536 18.7224 11.718 18.4954C11.4831 18.2715 11.1772 18.1013 10.7989 17.9867C10.4215 17.872 9.96628 17.8134 9.43623 17.8134C9.12173 17.8134 8.84136 17.8343 8.59319 17.8742C8.34594 17.9138 8.12675 17.971 7.93108 18.0461V16.9595V16.9511V16.4263C7.93108 16.4198 7.93044 16.4124 7.92936 16.4062V16.3899C7.92401 16.3297 7.89776 16.278 7.85102 16.2359C7.80377 16.1926 7.74288 16.1716 7.67373 16.1716H7.64606H6.59464C6.52629 16.1716 6.46702 16.194 6.41997 16.2385C6.37161 16.2831 6.34809 16.3398 6.34809 16.4036L6.34546 22.8413Z" fill="#101010"/>
<path d="M20.0902 17.8819C20.1389 17.9255 20.1627 17.9787 20.1627 18.0392V18.1898V18.9478V20.5237C20.1627 20.9681 20.1279 21.3512 20.0563 21.6704C19.9861 21.9914 19.8611 22.2517 19.678 22.4554C19.4955 22.6573 19.2437 22.8065 18.9237 22.9006C18.6038 22.997 18.1963 23.0445 17.7012 23.0445C17.2049 23.0445 16.7964 22.997 16.4754 22.9006C16.1511 22.8065 15.8973 22.6573 15.7137 22.4554C15.5276 22.2517 15.3989 21.9926 15.326 21.6748C15.2533 21.3567 15.2179 20.9754 15.2179 20.5302V18.9478V18.3923V18.0392C15.2179 17.9787 15.2411 17.9255 15.2882 17.8819C15.3361 17.8363 15.3953 17.8134 15.4657 17.8134H15.6079H16.3056H16.4107C16.4798 17.8134 16.5391 17.8363 16.59 17.8819C16.6414 17.9255 16.6662 17.9787 16.6662 18.0392V18.9478V20.5605C16.6662 20.7399 16.6647 20.907 16.6766 21.0596C16.6889 21.2119 16.7283 21.3412 16.7964 21.4489C16.8646 21.5572 16.9693 21.641 17.1112 21.701C17.2548 21.7607 17.4527 21.791 17.7081 21.791C17.9633 21.791 18.1605 21.7607 18.3017 21.701C18.441 21.641 18.5447 21.5554 18.6128 21.4457C18.6799 21.3352 18.7194 21.2039 18.7328 21.0518C18.7446 20.8991 18.7505 20.7332 18.7505 20.5532V18.9478V18.0392C18.7505 17.9787 18.7764 17.9255 18.8221 17.8819C18.8691 17.8363 18.9289 17.8134 18.999 17.8134H19.1266H19.5693H19.915C19.9852 17.8134 20.0433 17.8363 20.0902 17.8819Z" fill="#101010"/>
<path d="M22.1174 19.9299C22.1356 19.7747 22.1738 19.6362 22.2255 19.5135C22.2791 19.3916 22.3577 19.2875 22.4627 19.2019C22.5674 19.1173 22.6997 19.0503 22.8611 19.0033C23.0202 18.9552 23.2201 18.9313 23.4599 18.9313C23.6999 18.9313 23.8921 18.9572 24.0351 19.0066C24.177 19.0571 24.287 19.1269 24.364 19.2134C24.4422 19.3015 24.4955 19.4057 24.5263 19.5283C24.5547 19.6513 24.5755 19.785 24.5854 19.9299H23.0274C22.9026 19.9299 22.8973 20.055 22.8973 20.055V20.8166C22.8973 20.8166 22.8972 20.9279 23.0274 20.9279H25.9884C25.9947 20.6482 25.9947 20.3759 25.9884 20.1136C25.9848 19.852 25.9583 19.6039 25.9106 19.3717C25.8622 19.1388 25.7878 18.9269 25.6842 18.7378C25.5824 18.5463 25.4382 18.3836 25.254 18.2457C25.0685 18.108 24.833 18.0017 24.5483 17.9254C24.2633 17.8516 23.9181 17.8135 23.5124 17.8135C22.9175 17.8135 22.4328 17.8848 22.0575 18.0279C21.6815 18.171 21.3886 18.3618 21.1756 18.6013C20.9632 18.8417 20.8181 19.1209 20.7406 19.4381C20.6618 19.7558 20.6232 20.0899 20.6232 20.441C20.6232 20.8011 20.6618 21.1401 20.7406 21.4573C20.8181 21.775 20.9606 22.0542 21.171 22.2937C21.3814 22.5341 21.6758 22.7238 22.0542 22.864C22.4307 23.0035 22.9203 23.0739 23.52 23.0739C23.7914 23.0739 24.0257 23.0638 24.2244 23.0445C24.4254 23.0241 24.6103 22.9898 24.7819 22.9428C24.9509 22.8954 25.1129 22.833 25.2654 22.7557C25.4175 22.6773 25.5167 22.6239 25.6932 22.5035C25.7029 22.4986 25.9713 22.3235 25.8323 22.1474C25.8078 22.1151 25.8078 22.1132 25.7415 22.0328L25.3588 21.5357C25.319 21.4811 25.2703 21.4509 25.2123 21.4457C25.1547 21.4412 25.0958 21.4603 25.0364 21.5054C24.9305 21.576 24.833 21.6376 24.7438 21.6893C24.6527 21.742 24.5524 21.7874 24.4434 21.8242C24.3329 21.8624 24.2052 21.8906 24.061 21.9113C23.9153 21.9307 23.7354 21.9407 23.52 21.9407C23.27 21.9407 23.0612 21.9184 22.893 21.8702C22.7264 21.8226 22.5883 21.7532 22.4807 21.663C22.3737 21.5729 22.291 21.4659 22.2331 21.3398C22.1756 21.2159 22.1356 21.0782 22.1174 20.9279C22.056 20.482 22.1174 19.9299 22.1174 19.9299Z" fill="#101010"/>
<path d="M22.078 13.03C22.078 12.8231 22.0579 12.6343 22.0174 12.4642C21.9762 12.2935 21.9058 12.1489 21.8053 12.0283C21.7042 11.9076 21.5674 11.8141 21.3968 11.7469C21.2255 11.6792 21.0116 11.6459 20.7519 11.6459C20.4928 11.6459 20.2769 11.6792 20.1064 11.7469C19.9349 11.8141 19.8011 11.9076 19.7003 12.0283C19.5986 12.1489 19.528 12.2935 19.4903 12.4642C19.4518 12.6343 19.4327 12.8231 19.4327 13.03C19.4327 13.2369 19.4518 13.4256 19.4903 13.5961C19.528 13.7666 19.5986 13.9128 19.7003 14.0354C19.8011 14.1582 19.9349 14.2547 20.1064 14.3233C20.2769 14.394 20.4928 14.4288 20.7519 14.4288C21.0116 14.4288 21.2255 14.394 21.3968 14.3233C21.5674 14.2547 21.7042 14.1582 21.8053 14.0354C21.9058 13.9128 21.9762 13.7666 22.0174 13.5961C22.0579 13.4256 22.078 13.2369 22.078 13.03ZM17.9117 12.994C17.9117 12.5902 17.9626 12.2308 18.0663 11.9161C18.1684 11.6011 18.3363 11.3366 18.5633 11.1232C18.7917 10.9089 19.0854 10.7464 19.4435 10.6363C19.8017 10.5259 20.2375 10.4706 20.7519 10.4706C21.2612 10.4706 21.696 10.5259 22.0579 10.6363C22.4166 10.7464 22.7116 10.9089 22.9402 11.1232C23.1685 11.3366 23.3355 11.6011 23.4377 11.9161C23.5411 12.2308 23.5922 12.5902 23.5922 12.994C23.5922 13.4021 23.5411 13.7641 23.4377 14.0788C23.3355 14.394 23.1685 14.658 22.9402 14.8722C22.7116 15.0857 22.4166 15.2482 22.0579 15.3583C21.696 15.4689 21.2612 15.5251 20.7519 15.5251C20.2375 15.5251 19.8017 15.4689 19.4435 15.3583C19.0854 15.2482 18.7917 15.0857 18.5633 14.8722C18.3363 14.658 18.1684 14.394 18.0663 14.0788C17.9626 13.7641 17.9117 13.4021 17.9117 12.994Z" fill="#101010"/>
<path d="M22.1174 19.9299C22.1356 19.7747 22.1738 19.6362 22.2255 19.5135C22.2791 19.3916 22.3577 19.2875 22.4627 19.2019C22.5674 19.1173 22.6997 19.0503 22.8611 19.0033C23.0202 18.9552 23.2201 18.9313 23.4599 18.9313C23.6999 18.9313 23.8921 18.9572 24.0351 19.0066C24.177 19.0571 24.287 19.1269 24.364 19.2134C24.4422 19.3015 24.4955 19.4057 24.5263 19.5283C24.5547 19.6513 24.5755 19.785 24.5854 19.9299H23.0274C22.9026 19.9299 22.8973 20.055 22.8973 20.055V20.8166C22.8973 20.8166 22.8972 20.9279 23.0274 20.9279H25.9884C25.9947 20.6482 25.9947 20.3759 25.9884 20.1136C25.9848 19.852 25.9583 19.6039 25.9106 19.3717C25.8622 19.1388 25.7878 18.9269 25.6842 18.7378C25.5824 18.5463 25.4382 18.3836 25.254 18.2457C25.0685 18.108 24.833 18.0017 24.5483 17.9254C24.2633 17.8516 23.9181 17.8135 23.5124 17.8135C22.9175 17.8135 22.4328 17.8848 22.0575 18.0279C21.6815 18.171 21.3886 18.3618 21.1756 18.6013C20.9632 18.8417 20.8181 19.1209 20.7406 19.4381C20.6618 19.7558 20.6232 20.0899 20.6232 20.441C20.6232 20.8011 20.6618 21.1401 20.7406 21.4573C20.8181 21.775 20.9606 22.0542 21.171 22.2937C21.3814 22.5341 21.6758 22.7238 22.0542 22.864C22.4307 23.0035 22.9203 23.0739 23.52 23.0739C23.7914 23.0739 24.0257 23.0638 24.2244 23.0445C24.4254 23.0241 24.6103 22.9898 24.7819 22.9428C24.9509 22.8954 25.1129 22.833 25.2654 22.7557C25.4175 22.6773 25.5167 22.6239 25.6932 22.5035C25.7029 22.4986 25.9713 22.3235 25.8323 22.1474C25.8078 22.1151 25.8078 22.1132 25.7415 22.0328L25.3588 21.5357C25.319 21.4811 25.2703 21.4509 25.2123 21.4457C25.1547 21.4412 25.0958 21.4603 25.0364 21.5054C24.9305 21.576 24.833 21.6376 24.7438 21.6893C24.6527 21.742 24.5524 21.7874 24.4434 21.8242C24.3329 21.8624 24.2052 21.8906 24.061 21.9113C23.9153 21.9307 23.7354 21.9407 23.52 21.9407C23.27 21.9407 23.0612 21.9184 22.893 21.8702C22.7264 21.8226 22.5883 21.7532 22.4807 21.663C22.3737 21.5729 22.291 21.4659 22.2331 21.3398C22.1756 21.2159 22.1356 21.0782 22.1174 20.9279C22.056 20.482 22.1174 19.9299 22.1174 19.9299Z" fill="#101010"/>
<defs>
<linearGradient id="paint0_linear_44_878" x1="16" y1="32" x2="16" y2="0" gradientUnits="userSpaceOnUse">
<stop stop-color="#999999"/>
<stop offset="1" stop-color="white"/>
</linearGradient>
</defs>
</svg>
