<svg width="50" height="50" viewBox="0 0 50 50" fill="none" xmlns="http://www.w3.org/2000/svg">
<path d="M21.4739 28.5257L31.57 18.4296M41.8979 12.2681L33.3758 39.9653C32.6121 42.4474 32.2298 43.689 31.571 44.1007C30.9998 44.4576 30.2923 44.5174 29.67 44.259C28.9525 43.9613 28.3702 42.7986 27.2083 40.4751L21.8106 29.6795C21.6262 29.3107 21.5339 29.1272 21.4108 28.9674C21.3014 28.8257 21.1754 28.6978 21.0337 28.5886C20.8775 28.4682 20.697 28.378 20.3447 28.202L9.52418 22.7915C7.20064 21.6299 6.03876 21.0484 5.74103 20.3309C5.48283 19.7086 5.5417 19.0006 5.8987 18.4292C6.31035 17.7704 7.55191 17.3876 10.0348 16.6237L37.7318 8.10147C39.6839 7.50087 40.6604 7.20081 41.3196 7.44285C41.8939 7.65368 42.3466 8.10599 42.5575 8.68031C42.7993 9.33931 42.4991 10.3152 41.8991 12.2653L41.8979 12.2681Z" stroke="black" stroke-opacity="0.75" stroke-width="4.16667" stroke-linecap="round" stroke-linejoin="round"/>
</svg>
