<svg width="50" height="50" viewBox="0 0 50 50" fill="none" xmlns="http://www.w3.org/2000/svg">
<path d="M25 4.89148C11.2147 4.89148 0 13.303 0 23.6415C0 28.6464 2.56436 33.3164 7.23438 36.8451C6.90127 38.596 5.86895 41.0312 2.99072 43.4997C2.71865 43.7316 2.6123 44.104 2.71953 44.4449C2.82676 44.7858 3.12676 45.03 3.48242 45.0657C3.54697 45.0718 3.94453 45.1085 4.59766 45.1085C6.78271 45.1085 11.8277 44.6986 16.8387 41.3722C19.4579 42.0488 22.2011 42.3916 24.9999 42.3916C38.7852 42.3916 49.9999 33.9801 49.9999 23.6416C49.9999 13.3031 38.7853 4.89148 25 4.89148ZM25 40.6058C22.2177 40.6058 19.4955 40.2483 16.9094 39.5438C16.6574 39.4759 16.3845 39.5212 16.1674 39.6712C12.2419 42.3828 8.18135 43.1021 5.78877 43.2704C8.09678 40.7269 8.86846 38.2838 9.08643 36.56C9.12744 36.2357 8.98789 35.9148 8.72197 35.7238C4.24893 32.5038 1.78574 28.213 1.78574 23.6415C1.78574 14.2874 12.1992 6.67722 25 6.67722C37.8008 6.67722 48.2143 14.2874 48.2143 23.6415C48.2143 32.9956 37.8008 40.6058 25 40.6058Z" fill="black" fill-opacity="0.75"/>
</svg>
